<?xml version="1.0" standalone="no"?>
<!DOCTYPE svg PUBLIC "-//W3C//DTD SVG 20010904//EN"
 "http://www.w3.org/TR/2001/REC-SVG-20010904/DTD/svg10.dtd">
<svg version="1.0" xmlns="http://www.w3.org/2000/svg"
 width="250.000000pt" height="250.000000pt" viewBox="0 0 250.000000 250.000000"
 preserveAspectRatio="xMidYMid meet">
<metadata>
Created by potrace 1.14, written by Peter Selinger 2001-2017
</metadata>
<g transform="translate(0.000000,250.000000) scale(0.100000,-0.100000)"
fill="#000000" stroke="none">
<path d="M1482 2426 c-29 -19 -63 -42 -75 -54 -12 -11 -71 -53 -132 -94 -146
-98 -257 -178 -275 -198 -19 -20 -80 -65 -100 -72 -8 -3 -115 -78 -238 -167
-123 -89 -233 -166 -244 -172 -49 -26 -367 -262 -375 -277 -13 -27 -16 -868
-3 -892 8 -15 19 -20 38 -18 l27 3 3 423 2 422 28 -6 c30 -8 108 -50 134 -74
9 -8 63 -39 120 -68 57 -29 202 -108 323 -175 l220 -123 5 -421 c3 -295 8
-425 16 -433 7 -7 22 -10 35 -8 l24 3 3 427 2 426 109 81 c59 45 111 81 115
81 9 0 278 200 307 229 14 14 39 33 55 41 16 8 131 89 256 180 411 298 490
355 499 358 5 2 10 -169 11 -380 l3 -383 27 -3 c19 -2 30 3 38 17 7 15 10 144
8 422 l-3 400 -25 19 c-14 11 -54 34 -90 52 -74 37 -140 77 -155 95 -5 6 -37
26 -70 43 -33 18 -171 99 -306 181 -136 82 -250 149 -255 148 -5 0 -33 -15
-62 -33z m-64 -487 c74 -15 152 -66 190 -123 26 -40 32 -58 32 -103 0 -133
-120 -232 -295 -241 l-80 -4 -56 -60 c-43 -46 -61 -59 -80 -56 -37 5 -37 43 0
88 17 22 31 41 31 43 0 3 -10 7 -22 11 -46 11 -119 67 -148 113 -82 129 9 290
187 332 54 13 183 13 241 0z"/>
<path d="M1165 1849 c-112 -44 -154 -125 -105 -203 18 -30 96 -83 106 -73 3 3
-6 28 -21 57 -32 64 -30 94 7 98 23 3 31 -4 57 -50 16 -29 34 -58 40 -65 6 -7
17 -24 23 -39 12 -25 15 -26 79 -22 185 14 272 160 154 260 -67 58 -240 77
-340 37z"/>
</g>
</svg>
